<svg width="51" height="58" viewBox="0 0 51 58" fill="none" xmlns="http://www.w3.org/2000/svg">
<path fill-rule="evenodd" clip-rule="evenodd" d="M45.3333 8.7L45.3333 5.8L42.5 5.8L42.5 8.7L39.6667 8.7L39.6667 11.6L36.8333 11.6L34 11.6L34 14.5L31.1667 14.5L28.3333 14.5L28.3333 17.4L25.5 17.4L22.6667 17.4L22.6667 20.3L19.8333 20.3L19.8333 23.2L17 23.2L14.1667 23.2L14.1667 26.1L11.3333 26.1L8.5 26.1L8.5 29L11.3333 29L11.3333 31.9L14.1667 31.9L17 31.9L17 34.8L19.8333 34.8L19.8333 37.7L22.6667 37.7L25.5 37.7L25.5 40.6L28.3333 40.6L31.1667 40.6L31.1667 43.5L34 43.5L36.8333 43.5L36.8333 46.4L39.6667 46.4L39.6667 49.3L42.5 49.3L45.3333 49.3L45.3333 46.4L45.3333 43.5L45.3333 40.6L45.3333 37.7L45.3333 34.8L45.3333 31.9L45.3333 29L45.3333 26.1L45.3333 23.2L45.3333 20.3L45.3333 17.4L45.3333 14.5L45.3333 11.6L45.3333 8.7ZM51 55.1L48.1667 55.1L48.1667 58L45.3333 58L45.3333 55.1L42.5 55.1L39.6667 55.1L39.6667 52.2L36.8333 52.2L36.8333 49.3L34 49.3L31.1667 49.3L31.1667 46.4L28.3333 46.4L25.5 46.4L25.5 43.5L22.6667 43.5L19.8333 43.5L19.8333 40.6L17 40.6L17 37.7L14.1667 37.7L11.3333 37.7L11.3333 34.8L8.5 34.8L5.66667 34.8L5.66667 31.9L2.83333 31.9L2.83333 29L-1.26763e-06 29L-1.39439e-06 26.1L2.83333 26.1L2.83333 23.2L5.66667 23.2L8.5 23.2L8.5 20.3L11.3333 20.3L14.1667 20.3L14.1667 17.4L17 17.4L19.8333 17.4L19.8333 14.5L22.6667 14.5L22.6667 11.6L25.5 11.6L28.3333 11.6L28.3333 8.7L31.1667 8.7L34 8.7L34 5.8L36.8333 5.8L39.6667 5.8L39.6667 2.9L42.5 2.9L42.5 1.00329e-06L45.3333 8.7944e-07L48.1667 7.55591e-07L51 6.31742e-07L51 2.9L51 5.8L51 8.7L51 11.6L51 14.5L51 17.4L51 20.3L51 23.2L51 26.1L51 29L51 31.9L51 34.8L51 37.7L51 40.6L51 43.5L51 46.4L51 49.3L51 52.2L51 55.1Z" fill="#FFF3CA"/>
<path d="M45.3333 8.7L45.3333 5.8L42.5 5.8L42.5 8.7L39.6667 8.7L39.6667 11.6L36.8333 11.6L34 11.6L34 14.5L31.1667 14.5L28.3333 14.5L28.3333 17.4L25.5 17.4L22.6667 17.4L22.6667 20.3L19.8333 20.3L19.8333 23.2L17 23.2L14.1667 23.2L14.1667 26.1L11.3333 26.1L8.5 26.1L8.5 29L11.3333 29L11.3333 31.9L14.1667 31.9L17 31.9L17 34.8L19.8333 34.8L19.8333 37.7L22.6667 37.7L25.5 37.7L25.5 40.6L28.3333 40.6L31.1667 40.6L31.1667 43.5L34 43.5L36.8333 43.5L36.8333 46.4L39.6667 46.4L39.6667 49.3L42.5 49.3L45.3333 49.3L45.3333 46.4L45.3333 43.5L45.3333 40.6L45.3333 37.7L45.3333 34.8L45.3333 31.9L45.3333 29L45.3333 26.1L45.3333 23.2L45.3333 20.3L45.3333 17.4L45.3333 14.5L45.3333 11.6L45.3333 8.7Z" fill="#FFF3CA"/>
</svg>
