<svg width="38" height="38" viewBox="0 0 38 38" fill="none" xmlns="http://www.w3.org/2000/svg">
<g clip-path="url(#clip0_59_6)">
<path d="M27.0556 35.5106V32.1286C27.0556 30.3347 26.343 28.6143 25.0745 27.3458C23.806 26.0773 22.0856 25.3647 20.2917 25.3647H10.1458C8.35193 25.3647 6.6315 26.0773 5.36302 27.3458C4.09454 28.6143 3.38192 30.3347 3.38192 32.1286V35.5106M27.0556 5.28944C28.506 5.66546 29.7906 6.51247 30.7076 7.6975C31.6245 8.88253 32.1221 10.3385 32.1221 11.8369C32.1221 13.3353 31.6245 14.7913 30.7076 15.9763C29.7906 17.1613 28.506 18.0083 27.0556 18.3844M37.2014 35.5106V32.1286C37.2003 30.63 36.7015 29.1741 35.7833 27.9896C34.8652 26.8052 33.5796 25.9592 32.1285 25.5845M21.9827 11.8369C21.9827 15.5725 18.9544 18.6008 15.2188 18.6008C11.4832 18.6008 8.45485 15.5725 8.45485 11.8369C8.45485 8.1013 11.4832 5.073 15.2188 5.073C18.9544 5.073 21.9827 8.1013 21.9827 11.8369Z" stroke="white" stroke-width="4.34822" stroke-linecap="round" stroke-linejoin="round"/>
</g>
<defs>
<clipPath id="clip0_59_6">
<rect width="37.4548" height="37.4548" fill="white"/>
</clipPath>
</defs>
</svg>
